<?xml version="1.0" encoding="UTF-8" standalone="no"?>
<!-- Created with Inkscape (http://www.inkscape.org/) -->
<svg xmlns:rdf="http://www.w3.org/1999/02/22-rdf-syntax-ns#" xmlns="http://www.w3.org/2000/svg" xmlns:cc="http://web.resource.org/cc/" xmlns:xlink="http://www.w3.org/1999/xlink" xmlns:dc="http://purl.org/dc/elements/1.1/" xmlns:svg="http://www.w3.org/2000/svg" xmlns:inkscape="http://www.inkscape.org/namespaces/inkscape" xmlns:sodipodi="http://sodipodi.sourceforge.net/DTD/sodipodi-0.dtd" xmlns:ns1="http://sozi.baierouge.fr" id="svg583" viewBox="0 0 744.09 496.06" version="1.0" y="0" x="0" inkscape:version="0.91 r13725">
  <g id="g709" transform="translate(0 -.000015259)">
    <rect id="rect704" style="fill-rule:evenodd;stroke-width:1pt;fill:#ff0000" height="124.02" width="744.09" y="372.05" x="0"/>
    <rect id="rect707" style="fill-rule:evenodd;stroke-width:1pt;fill:#ff0000" height="124.02" width="744.09" y="0" x="0"/>
    <rect id="rect708" style="fill-rule:evenodd;stroke-width:1pt;fill:#ffffff" height="248.03" width="744.09" y="124.02" x="0"/>
  </g>
  <path id="selection_to_path" style="fill:#007900" d="m368.26 125.9c-7.56 15.11-12.61 15.11-25.22 25.18-5.04 5.04-12.61 7.56-2.52 12.6-10.09 5.03-15.14 7.55-20.18 17.62l2.52 2.52s9.59-4.7 10.09-2.52c1.68 2.02-12.62 9.74-14.46 10.91-1.85 1.18-10.76 6.72-10.76 6.72-12.61 10.07-20.18 7.55-27.75 22.66l25.22-2.52c5.05 17.63-12.61 20.15-25.22 27.7l-20.18 12.59c5.05 17.63 20.18 7.56 32.79 2.52l2.53 2.52v5.04l-25.23 12.59s-29.77 17.03-30.27 17.62c-0.2 0.91 0 5.04 0 5.04 10.09 2.52 25.23 5.03 35.32 0 12.61-5.04 15.13-10.07 30.26-10.07-17.65 12.59-30.26 17.62-50.44 20.14v10.07c15.13 0 25.22 0 37.83-2.51l32.79-10.08c7.57 0 15.14 7.56 12.62 15.11-7.57 27.7-37.84 22.66-47.93 45.33l40.36-15.11c10.09-5.04 20.18-10.07 32.79-7.56 15.13 5.04 15.13 15.11 35.31 20.15l-5.04-12.59c5.04 2.52 10.09 2.52 15.13 5.03 12.61 5.04 15.14 10.08 30.27 7.56-12.61-15.11-15.13-12.59-25.22-22.66-10.09-15.11-15.14-37.78 0-40.29 0 0 17.65 5.03 17.65 5.03 17.66 2.52 17.66-2.52 42.88 7.56 15.14 5.03 20.18 12.59 37.84 7.55-7.57-17.63-35.32-30.22-52.97-35.25 20.18-12.59 15.13 5.03 42.88-2.52v-5.04c-20.18-15.1-27.75-27.7-55.49-27.7 0 0 42.88-5.03 42.88-5.03v-5.04s-42.29-11.09-43.28-11.49c0.3-1.28 1.33-3.26 4.14-4.35 8.03 5.19 32.32 4.59 33.7 4.49-0.71-6.2-12.22-11.31-22.31-16.35 0 0-43.2-26.62-43.41-28.98 0.85-6.75 17.74 1.07 35.84 6.32-5.04-10.07-15.13-15.11-25.22-17.63 0 0 15.13-2.51 15.13-2.51-10.09-22.67-35.31-20.15-50.44-30.22-10.09-7.55-10.09-12.59-25.23-20.15z"/>
  <path id="path593" style="stroke-linejoin:round;fill-rule:evenodd;stroke:#ffffff;stroke-linecap:round;stroke-width:3.1188;fill:#ffffff" d="m341.01 293.63c1.87-6 4.34-11.31-6.9-16.42-11.23-5.12 5.62 20.45 6.9 16.42z"/>
  <path id="path594" style="stroke-linejoin:round;fill-rule:evenodd;stroke:#ffffff;stroke-linecap:round;stroke-width:3.1188;fill:#ffffff" d="m354.31 281.63c-2.26 0.3-3.45 8.56 1.08 10.82 5.03 0.79 0.89-10.72-1.08-10.82z"/>
  <path id="path595" style="stroke-linejoin:round;fill-rule:evenodd;stroke:#ffffff;stroke-linecap:round;stroke-width:3.1188;fill:#ffffff" d="m367.42 280.75c-2.37 0.69-2.47 12.29 5.81 10.23 8.28-2.07-0.1-11.22-5.81-10.23z"/>
  <path id="path597" style="stroke-linejoin:round;fill-rule:evenodd;stroke:#ffffff;stroke-linecap:round;stroke-width:3.1188;fill:#ffffff" d="m382.69 250.94c1.77-2.85-0.1-14.55-7.19-9.64-7.1 4.92 4.92 10.43 7.19 9.64z"/>
  <path id="path598" style="stroke-linejoin:round;fill-rule:evenodd;stroke:#ffffff;stroke-linecap:round;stroke-width:3.1188;fill:#ffffff" d="m367.22 241.21c2.17-0.79 2.36-7.97-3.84-6.1-6.21 1.87 2.16 7.57 3.84 6.1z"/>
  <path id="path599" style="stroke-linejoin:round;fill-rule:evenodd;stroke:#ffffff;stroke-linecap:round;stroke-width:3.1188;fill:#ffffff" d="m353.23 244.06s-4.34-6-7.69-4.72c-4.24 4.03 7.98 4.82 7.69 4.72z"/>
  <path id="path600" style="stroke-linejoin:round;fill-rule:evenodd;stroke:#ffffff;stroke-linecap:round;stroke-width:3.1188;fill:#ffffff" d="m305.18 263.23c1.85 0.17 15.53-2.25 20.26-7.56 4.73-5.32-24.34 2.27-24.34 2.37s2.74 4.69 4.08 5.19z"/>
  <path id="path601" style="stroke-linejoin:round;fill-rule:evenodd;stroke:#ffffff;stroke-linecap:round;stroke-width:3.1188;fill:#ffffff" d="m441.91 229.36c0.7-1.25-7.29-6.95-12.03-4.7-1.23 4.2 11.99 5.56 12.03 4.7z"/>
  <path id="path602" style="stroke-linejoin:round;fill-rule:evenodd;stroke:#ffffff;stroke-linecap:round;stroke-width:3.1188;fill:#ffffff" d="m415 215.83c1.48-2.17-3.44-11.02-13.3-6.1-9.85 4.92 10.35 9.54 13.3 6.1z"/>
  <path id="path603" style="stroke-linejoin:round;fill-rule:evenodd;stroke:#ffffff;stroke-linecap:round;stroke-width:3.1188;fill:#ffffff" d="m383.87 210.62s2.46-7.97 8.38-6.4c6.7 5.12-8.08 6.69-8.38 6.4z"/>
  <path id="path604" style="stroke-linejoin:round;fill-rule:evenodd;stroke:#ffffff;stroke-linecap:round;stroke-width:3.1188;fill:#ffffff" d="m378.06 204.62c-0.89-2.27-7.1-0.89-14.19 3.73-7.1 4.63 16.35 1.38 14.19-3.73z"/>
  <path id="path605" style="stroke-linejoin:round;fill-rule:evenodd;stroke:#ffffff;stroke-linecap:round;stroke-width:3.1188;fill:#ffffff" d="m396.19 183.17s6.32-2.83 8.17 0c2.66 4.23-8.27 0.1-8.17 0z"/>
  <path id="path606" style="stroke-linejoin:round;fill-rule:evenodd;stroke:#ffffff;stroke-linecap:round;stroke-width:3.1188;fill:#ffffff" d="m390.88 180.41c-1.28-2.56-8.27-2.8-8.09 0.89-1.17 2.9 9.09 2.36 8.09-0.89z"/>
  <path id="path607" style="stroke-linejoin:round;fill-rule:evenodd;stroke:#ffffff;stroke-linecap:round;stroke-width:3.1188;fill:#ffffff" d="m374.21 180.42c-0.69-1.48-10.63 0.03-13.59 6 4.74 2.31 15.76-2.26 13.59-6z"/>
  <path id="path608" style="stroke-linejoin:round;fill-rule:evenodd;stroke:#ffffff;stroke-linecap:round;stroke-width:3.1188;fill:#ffffff" d="m352.93 186.52s-13.09 8-13.89 13.87c0.4 5.06 16.26-9.15 16.26-9.15s1.38-5.61-2.37-4.72z"/>
  <path id="path609" style="stroke-linejoin:round;fill-rule:evenodd;stroke:#ffffff;stroke-linecap:round;stroke-width:3.1188;fill:#ffffff" d="m338.45 179.24c0.37-1.63 6.47-5.4 6.99-5.12 0.5 1.64-4.98 6.09-6.99 5.12z"/>
  <path id="path610" style="stroke-linejoin:round;fill-rule:evenodd;stroke:#ffffff;stroke-linecap:round;stroke-width:3.1188;fill:#ffffff" d="m342.59 209.83c0.29-2.36-15.57-2.17-9.56 5.11 5 6.11 10.64-4.03 9.56-5.11z"/>
  <path id="path611" style="stroke-linejoin:round;fill-rule:evenodd;stroke:#ffffff;stroke-linecap:round;stroke-width:3.1188;fill:#ffffff" d="m328.14 220.28c-0.82-1.6-2.01-5.85-4.19-6.24-1.77-0.1-11.31 1.86-12.03 3.48-0.4 1.28 3.94 9.14 5.42 9.34 1.68 0.68 10.51-5.8 10.8-6.58z"/>
  <path id="path612" style="stroke-linejoin:round;fill-rule:evenodd;stroke:#ffffff;stroke-linecap:round;stroke-width:3.1188;fill:#ffffff" d="m413.72 273.66c0.5-1.67 16.71-7.27 22.3-1.91 6.6 9.05-22.69 4.77-22.3 1.91z"/>
  <path id="path613" style="stroke-linejoin:round;fill-rule:evenodd;stroke:#ffffff;stroke-linecap:round;stroke-width:3.1188;fill:#ffffff" d="m458.28 284.26c3.55-6.01-10.91-13.14-17.04-6.27 2.09 8.25 14.17 11.24 17.04 6.27z"/>
  <metadata>
    <rdf:RDF>
      <cc:Work>
        <dc:format>image/svg+xml</dc:format>
        <dc:type rdf:resource="http://purl.org/dc/dcmitype/StillImage"/>
        <cc:license rdf:resource="http://creativecommons.org/licenses/publicdomain/"/>
        <dc:publisher>
          <cc:Agent rdf:about="http://openclipart.org/">
            <dc:title>Openclipart</dc:title>
          </cc:Agent>
        </dc:publisher>
        <dc:title>Flag of Lebanon</dc:title>
        <dc:date>2008-07-12T17:23:19</dc:date>
        <dc:description/>
        <dc:source>https://openclipart.org/detail/17769/flag-of-lebanon-by-tobias</dc:source>
        <dc:creator>
          <cc:Agent>
            <dc:title>tobias</dc:title>
          </cc:Agent>
        </dc:creator>
        <dc:subject>
          <rdf:Bag>
            <rdf:li>asia</rdf:li>
            <rdf:li>flag</rdf:li>
            <rdf:li>lebanon</rdf:li>
            <rdf:li>sign</rdf:li>
            <rdf:li>united nations member</rdf:li>
          </rdf:Bag>
        </dc:subject>
      </cc:Work>
      <cc:License rdf:about="http://creativecommons.org/licenses/publicdomain/">
        <cc:permits rdf:resource="http://creativecommons.org/ns#Reproduction"/>
        <cc:permits rdf:resource="http://creativecommons.org/ns#Distribution"/>
        <cc:permits rdf:resource="http://creativecommons.org/ns#DerivativeWorks"/>
      </cc:License>
    </rdf:RDF>
  </metadata>
</svg>
